<mxfile host="app.diagrams.net" modified="2024-02-07T19:18:10.824Z" agent="Mozilla/5.0 (Windows NT 10.0; Win64; x64) AppleWebKit/537.36 (KHTML, like Gecko) Chrome/121.0.0.0 Safari/537.36" etag="rOKbKwwk5JiK7qGTkcqh" version="23.1.0" type="github">
  <diagram name="Page-1" id="tqqcwZvvvggDTY8GxJhe">
    <mxGraphModel dx="1134" dy="656" grid="1" gridSize="10" guides="1" tooltips="1" connect="1" arrows="1" fold="1" page="1" pageScale="1" pageWidth="850" pageHeight="1100" math="0" shadow="0">
      <root>
        <mxCell id="0" />
        <mxCell id="1" parent="0" />
        <mxCell id="F9-0gsxxVOQxlnHL_dSy-7" value="" style="edgeStyle=orthogonalEdgeStyle;rounded=0;orthogonalLoop=1;jettySize=auto;html=1;" edge="1" parent="1" source="F9-0gsxxVOQxlnHL_dSy-1" target="F9-0gsxxVOQxlnHL_dSy-2">
          <mxGeometry relative="1" as="geometry" />
        </mxCell>
        <mxCell id="F9-0gsxxVOQxlnHL_dSy-1" value="&lt;i&gt;Secret Number&lt;/i&gt;" style="shape=parallelogram;perimeter=parallelogramPerimeter;whiteSpace=wrap;html=1;fixedSize=1;fillColor=#f5f5f5;fontColor=#333333;strokeColor=#666666;" vertex="1" parent="1">
          <mxGeometry x="40" y="50" width="120" height="60" as="geometry" />
        </mxCell>
        <mxCell id="F9-0gsxxVOQxlnHL_dSy-8" value="" style="edgeStyle=orthogonalEdgeStyle;rounded=0;orthogonalLoop=1;jettySize=auto;html=1;" edge="1" parent="1" source="F9-0gsxxVOQxlnHL_dSy-2" target="F9-0gsxxVOQxlnHL_dSy-3">
          <mxGeometry relative="1" as="geometry" />
        </mxCell>
        <mxCell id="F9-0gsxxVOQxlnHL_dSy-2" value="Start" style="ellipse;whiteSpace=wrap;html=1;fillColor=#d5e8d4;strokeColor=#82b366;" vertex="1" parent="1">
          <mxGeometry x="200" y="40" width="120" height="80" as="geometry" />
        </mxCell>
        <mxCell id="F9-0gsxxVOQxlnHL_dSy-9" value="" style="edgeStyle=orthogonalEdgeStyle;rounded=0;orthogonalLoop=1;jettySize=auto;html=1;" edge="1" parent="1" source="F9-0gsxxVOQxlnHL_dSy-3" target="F9-0gsxxVOQxlnHL_dSy-4">
          <mxGeometry relative="1" as="geometry" />
        </mxCell>
        <mxCell id="F9-0gsxxVOQxlnHL_dSy-3" value="Set &lt;i&gt;Player2 Guess&lt;/i&gt;&amp;nbsp;to guess from Player 2" style="rounded=0;whiteSpace=wrap;html=1;" vertex="1" parent="1">
          <mxGeometry x="360" y="50" width="120" height="60" as="geometry" />
        </mxCell>
        <mxCell id="F9-0gsxxVOQxlnHL_dSy-10" value="" style="edgeStyle=orthogonalEdgeStyle;rounded=0;orthogonalLoop=1;jettySize=auto;html=1;" edge="1" parent="1" source="F9-0gsxxVOQxlnHL_dSy-4" target="F9-0gsxxVOQxlnHL_dSy-5">
          <mxGeometry relative="1" as="geometry" />
        </mxCell>
        <mxCell id="F9-0gsxxVOQxlnHL_dSy-4" value="Set &lt;i&gt;Secret Number&lt;/i&gt;&amp;nbsp;to input from Player 1" style="rounded=0;whiteSpace=wrap;html=1;" vertex="1" parent="1">
          <mxGeometry x="360" y="150" width="120" height="60" as="geometry" />
        </mxCell>
        <mxCell id="F9-0gsxxVOQxlnHL_dSy-11" value="" style="edgeStyle=orthogonalEdgeStyle;rounded=0;orthogonalLoop=1;jettySize=auto;html=1;" edge="1" parent="1" source="F9-0gsxxVOQxlnHL_dSy-5" target="F9-0gsxxVOQxlnHL_dSy-6">
          <mxGeometry relative="1" as="geometry" />
        </mxCell>
        <mxCell id="F9-0gsxxVOQxlnHL_dSy-5" value="Set&lt;i&gt;&amp;nbsp;Start Number &lt;/i&gt;to 1" style="rounded=0;whiteSpace=wrap;html=1;" vertex="1" parent="1">
          <mxGeometry x="360" y="250" width="120" height="60" as="geometry" />
        </mxCell>
        <mxCell id="F9-0gsxxVOQxlnHL_dSy-32" value="" style="edgeStyle=orthogonalEdgeStyle;rounded=0;orthogonalLoop=1;jettySize=auto;html=1;" edge="1" parent="1" source="F9-0gsxxVOQxlnHL_dSy-6" target="F9-0gsxxVOQxlnHL_dSy-31">
          <mxGeometry relative="1" as="geometry" />
        </mxCell>
        <mxCell id="F9-0gsxxVOQxlnHL_dSy-6" value="Set&lt;i&gt;&amp;nbsp;End Number &lt;/i&gt;to 10" style="rounded=0;whiteSpace=wrap;html=1;" vertex="1" parent="1">
          <mxGeometry x="360" y="350" width="120" height="60" as="geometry" />
        </mxCell>
        <mxCell id="F9-0gsxxVOQxlnHL_dSy-16" value="" style="edgeStyle=orthogonalEdgeStyle;rounded=0;orthogonalLoop=1;jettySize=auto;html=1;" edge="1" parent="1" source="F9-0gsxxVOQxlnHL_dSy-13">
          <mxGeometry relative="1" as="geometry">
            <mxPoint x="520" y="630" as="targetPoint" />
          </mxGeometry>
        </mxCell>
        <mxCell id="F9-0gsxxVOQxlnHL_dSy-30" value="" style="edgeStyle=orthogonalEdgeStyle;rounded=0;orthogonalLoop=1;jettySize=auto;html=1;" edge="1" parent="1" source="F9-0gsxxVOQxlnHL_dSy-13" target="F9-0gsxxVOQxlnHL_dSy-14">
          <mxGeometry relative="1" as="geometry" />
        </mxCell>
        <mxCell id="F9-0gsxxVOQxlnHL_dSy-13" value="Is &lt;i&gt;Player2 Guess&lt;/i&gt;&amp;nbsp;equal to &lt;i&gt;Secret Number?&lt;/i&gt;" style="rhombus;whiteSpace=wrap;html=1;" vertex="1" parent="1">
          <mxGeometry x="360" y="590" width="120" height="80" as="geometry" />
        </mxCell>
        <mxCell id="F9-0gsxxVOQxlnHL_dSy-41" value="" style="edgeStyle=orthogonalEdgeStyle;rounded=0;orthogonalLoop=1;jettySize=auto;html=1;" edge="1" parent="1" source="F9-0gsxxVOQxlnHL_dSy-14" target="F9-0gsxxVOQxlnHL_dSy-40">
          <mxGeometry relative="1" as="geometry" />
        </mxCell>
        <mxCell id="F9-0gsxxVOQxlnHL_dSy-14" value="Player 2&#39;s guess was correct" style="rounded=0;whiteSpace=wrap;html=1;" vertex="1" parent="1">
          <mxGeometry x="360" y="710" width="120" height="60" as="geometry" />
        </mxCell>
        <mxCell id="F9-0gsxxVOQxlnHL_dSy-17" value="No" style="text;html=1;strokeColor=none;fillColor=none;align=left;verticalAlign=middle;whiteSpace=wrap;rounded=0;" vertex="1" parent="1">
          <mxGeometry x="480" y="610" width="60" height="30" as="geometry" />
        </mxCell>
        <mxCell id="F9-0gsxxVOQxlnHL_dSy-21" value="" style="edgeStyle=orthogonalEdgeStyle;rounded=0;orthogonalLoop=1;jettySize=auto;html=1;" edge="1" parent="1" source="F9-0gsxxVOQxlnHL_dSy-18" target="F9-0gsxxVOQxlnHL_dSy-19">
          <mxGeometry relative="1" as="geometry" />
        </mxCell>
        <mxCell id="F9-0gsxxVOQxlnHL_dSy-22" value="" style="edgeStyle=orthogonalEdgeStyle;rounded=0;orthogonalLoop=1;jettySize=auto;html=1;" edge="1" parent="1" source="F9-0gsxxVOQxlnHL_dSy-18" target="F9-0gsxxVOQxlnHL_dSy-20">
          <mxGeometry relative="1" as="geometry" />
        </mxCell>
        <mxCell id="F9-0gsxxVOQxlnHL_dSy-18" value="Is &lt;i&gt;Secret Number&lt;/i&gt;&amp;nbsp;higher?" style="rhombus;whiteSpace=wrap;html=1;" vertex="1" parent="1">
          <mxGeometry x="520" y="590" width="120" height="80" as="geometry" />
        </mxCell>
        <mxCell id="F9-0gsxxVOQxlnHL_dSy-26" style="edgeStyle=orthogonalEdgeStyle;rounded=0;orthogonalLoop=1;jettySize=auto;html=1;exitX=0.5;exitY=0;exitDx=0;exitDy=0;" edge="1" parent="1" source="F9-0gsxxVOQxlnHL_dSy-19">
          <mxGeometry relative="1" as="geometry">
            <mxPoint x="580" y="470" as="targetPoint" />
          </mxGeometry>
        </mxCell>
        <mxCell id="F9-0gsxxVOQxlnHL_dSy-19" value="Guess lower" style="rounded=0;whiteSpace=wrap;html=1;" vertex="1" parent="1">
          <mxGeometry x="520" y="490" width="120" height="60" as="geometry" />
        </mxCell>
        <mxCell id="F9-0gsxxVOQxlnHL_dSy-24" style="edgeStyle=orthogonalEdgeStyle;rounded=0;orthogonalLoop=1;jettySize=auto;html=1;exitX=0.5;exitY=0;exitDx=0;exitDy=0;entryX=1;entryY=0.5;entryDx=0;entryDy=0;" edge="1" parent="1" source="F9-0gsxxVOQxlnHL_dSy-20" target="F9-0gsxxVOQxlnHL_dSy-27">
          <mxGeometry relative="1" as="geometry">
            <mxPoint x="740" y="470" as="targetPoint" />
          </mxGeometry>
        </mxCell>
        <mxCell id="F9-0gsxxVOQxlnHL_dSy-20" value="Guess higher" style="rounded=0;whiteSpace=wrap;html=1;" vertex="1" parent="1">
          <mxGeometry x="680" y="600" width="120" height="60" as="geometry" />
        </mxCell>
        <mxCell id="F9-0gsxxVOQxlnHL_dSy-29" value="" style="edgeStyle=orthogonalEdgeStyle;rounded=0;orthogonalLoop=1;jettySize=auto;html=1;" edge="1" parent="1" source="F9-0gsxxVOQxlnHL_dSy-23" target="F9-0gsxxVOQxlnHL_dSy-13">
          <mxGeometry relative="1" as="geometry" />
        </mxCell>
        <mxCell id="F9-0gsxxVOQxlnHL_dSy-23" value="" style="ellipse;whiteSpace=wrap;html=1;aspect=fixed;fillColor=#eeeeee;strokeColor=#36393d;" vertex="1" parent="1">
          <mxGeometry x="410" y="540" width="20" height="20" as="geometry" />
        </mxCell>
        <mxCell id="F9-0gsxxVOQxlnHL_dSy-28" style="edgeStyle=orthogonalEdgeStyle;rounded=0;orthogonalLoop=1;jettySize=auto;html=1;exitX=0;exitY=0.5;exitDx=0;exitDy=0;entryX=1;entryY=0.5;entryDx=0;entryDy=0;" edge="1" parent="1" source="F9-0gsxxVOQxlnHL_dSy-27" target="F9-0gsxxVOQxlnHL_dSy-23">
          <mxGeometry relative="1" as="geometry">
            <Array as="points">
              <mxPoint x="500" y="460" />
              <mxPoint x="500" y="550" />
            </Array>
          </mxGeometry>
        </mxCell>
        <mxCell id="F9-0gsxxVOQxlnHL_dSy-27" value="" style="ellipse;whiteSpace=wrap;html=1;aspect=fixed;fillColor=#eeeeee;strokeColor=#36393d;" vertex="1" parent="1">
          <mxGeometry x="570" y="450" width="20" height="20" as="geometry" />
        </mxCell>
        <mxCell id="F9-0gsxxVOQxlnHL_dSy-34" value="" style="edgeStyle=orthogonalEdgeStyle;rounded=0;orthogonalLoop=1;jettySize=auto;html=1;" edge="1" parent="1" source="F9-0gsxxVOQxlnHL_dSy-31" target="F9-0gsxxVOQxlnHL_dSy-23">
          <mxGeometry relative="1" as="geometry" />
        </mxCell>
        <mxCell id="F9-0gsxxVOQxlnHL_dSy-31" value="Player 2 takes a guess" style="rounded=0;whiteSpace=wrap;html=1;" vertex="1" parent="1">
          <mxGeometry x="360" y="450" width="120" height="60" as="geometry" />
        </mxCell>
        <mxCell id="F9-0gsxxVOQxlnHL_dSy-35" value="No" style="text;html=1;strokeColor=none;fillColor=none;align=left;verticalAlign=middle;whiteSpace=wrap;rounded=0;" vertex="1" parent="1">
          <mxGeometry x="580" y="560" width="60" height="30" as="geometry" />
        </mxCell>
        <mxCell id="F9-0gsxxVOQxlnHL_dSy-38" value="Yes" style="text;html=1;strokeColor=none;fillColor=none;align=left;verticalAlign=middle;whiteSpace=wrap;rounded=0;" vertex="1" parent="1">
          <mxGeometry x="640" y="610" width="60" height="30" as="geometry" />
        </mxCell>
        <mxCell id="F9-0gsxxVOQxlnHL_dSy-39" value="Yes" style="text;html=1;strokeColor=none;fillColor=none;align=left;verticalAlign=middle;whiteSpace=wrap;rounded=0;" vertex="1" parent="1">
          <mxGeometry x="420" y="670" width="60" height="30" as="geometry" />
        </mxCell>
        <mxCell id="F9-0gsxxVOQxlnHL_dSy-40" value="Stop" style="ellipse;whiteSpace=wrap;html=1;fillColor=#f8cecc;strokeColor=#b85450;" vertex="1" parent="1">
          <mxGeometry x="200" y="700" width="120" height="80" as="geometry" />
        </mxCell>
      </root>
    </mxGraphModel>
  </diagram>
</mxfile>
